<?xml version="1.0" encoding="UTF-8"?>
<svg width="211px" height="51px" viewBox="0 0 211 51" version="1.1" xmlns="http://www.w3.org/2000/svg" xmlns:xlink="http://www.w3.org/1999/xlink">
    <title>Group 17</title>
    <g id="Cart" stroke="none" stroke-width="1" fill="none" fill-rule="evenodd">
        <g id="Home-page" transform="translate(-58, -59)" fill="#2D2D33">
            <g id="Group-17" transform="translate(58, 59)">
                <path d="M17.8769375,1.14596038 C22.6216411,-0.594283352 33.243198,-1.36003872 36.8419452,6.46113273 C43.3743167,18.5754668 36.8227359,31.877233 30.4728529,41.5511354 C25.9058356,47.7866579 18.4634223,51.9432718 10.5017569,50.8153918 C4.88663067,49.3121533 1.25306655,43.8285508 0.325015981,38.4357803 C-0.806533394,31.3863796 1.0957902,24.9667871 4.79898812,19.6594347 C5.90652584,11.9513521 10.2694441,4.54884969 17.8769375,1.14596038 Z M62.0845006,8.80952938 C61.8725977,15.055278 60.8232883,17.1275696 58.1111715,22.193706 C55.7466235,26.7641768 53.4625146,30.0539773 50.752799,33.8099683 C51.2876587,38.0736556 52.5104523,42.2146297 56.2970908,44.157591 C58.8753425,44.6532567 62.5479256,43.9133674 64.3319918,40.2289592 C64.0456527,39.0300979 63.860763,37.7897306 63.860763,36.552371 C63.8583618,31.3803642 68.3443398,31.3502874 69.4434734,34.3567645 C69.7808372,35.2819269 69.8774841,36.4170254 69.8756833,37.4661042 C69.8726818,39.1660451 69.6043515,40.8329014 69.5017017,41.4200006 C71.2713609,45.8310643 75.5508386,46.4217726 78.0096323,45.8334704 C80.1238588,44.7049888 81.2019823,42.4835163 81.9319366,40.2067024 C81.038703,37.9828237 80.4162008,35.3727589 82.0435909,33.1933938 C84.6548586,32.3169558 86.0745479,34.2160051 86.7312668,36.4284546 C87.0608268,37.5304686 87.0230084,40.0322569 86.9971959,41.3207471 C89.0111737,43.4814645 91.7827193,46.3983127 95.0951275,45.6078944 C97.4050489,44.2893274 97.4728819,41.4982002 96.0135734,39.6376493 C94.5560657,37.771083 92.99951,36.2191201 95.221789,33.8562865 C98.0455599,33.3263333 98.3931287,35.157409 100.333871,35.9460227 C102.595169,36.8603575 104.777828,37.6748372 107.21141,37.7770984 C107.001308,32.3626726 109.183968,29.2208499 113.611717,28.5976586 C118.412248,27.9245398 121.534964,32.5623825 119.925583,36.9060742 C118.564722,39.4018472 116.182766,41.218486 113.526476,41.970406 C113.538482,42.269971 113.732376,42.6934523 114.284644,43.0790369 C115.950453,44.214737 118.502892,44.4487345 120.53848,43.7407266 C123.723026,41.5204571 126.621234,38.1404261 126.904571,34.0162951 C128.057131,32.4763629 129.99187,31.7352705 131.653477,33.2733981 C133.268261,34.7056554 133.131995,35.7348836 135.412502,36.5764325 C136.611884,37.0047261 137.042893,37.9924483 136.868209,39.3098122 C136.853802,39.4391424 136.821386,39.5528327 136.790171,39.6587031 C136.452807,40.526118 136.785368,41.7069332 136.959453,42.3084693 C140.286868,45.7101555 148.059442,43.8784783 151.435481,39.4914761 C151.225379,36.9355495 151.193564,34.1239701 153.538902,32.42042 C155.248532,31.9662603 156.425704,32.8920243 157.144253,34.289994 C157.603476,36.2943121 156.451516,38.1656906 156.877723,39.5750896 C160.726792,44.2526337 167.70518,44.3392549 173.22546,44.3855732 C182.128983,43.9013367 190.50665,43.1770873 198.375871,41.3333794 C201.470373,40.5688271 204.818199,40.9502009 207.783638,39.6671246 C209.540691,39.8066809 210.384101,40.8551582 210.993997,42.3553891 C211.093045,44.0523222 210.024526,44.7470963 208.668468,45.2024591 C204.7843,44.3627856 201.480886,45.1223492 198.114233,45.9170838 L197.150055,46.1437567 C195.377201,46.5561244 193.570167,46.9372713 191.636399,47.0624085 C186.01527,47.8847083 179.17795,48.9446147 172.479898,48.9193502 C165.927717,48.8934842 159.387542,47.8347808 154.207627,44.4120408 C152.176841,45.6253389 150.010389,46.7893112 147.755094,47.4955145 C143.684518,48.7647555 135.73846,49.2441797 132.625949,45.0562859 C132.137312,44.1377403 131.842569,43.2053595 131.589246,42.2001928 L131.128222,40.2638483 C128.419707,43.9987855 124.864181,47.7980871 120.025831,48.7003911 C116.235591,48.9025072 116.008681,49.2098921 111.977124,47.3433258 C110.11562,46.4801216 108.852607,44.323615 108.13766,42.4672748 C106.049246,42.387872 103.952428,41.953563 101.932447,41.4296251 C102.069313,42.7656367 102.22779,44.1630049 101.680925,45.4430735 C100.51756,48.0591537 98.9351918,49.7097686 95.9631489,50.0947516 C91.1115934,50.9982587 87.8700196,48.2552545 85.0858679,45.3131417 L84.047964,46.478317 C82.2422873,48.4465429 80.0050011,50.4707116 77.1770281,50.5940265 C72.8891463,50.9994618 69.6415696,48.6161761 67.1389546,45.6469942 L63.698084,47.8690683 C61.3629503,49.3356132 58.2384333,49.3530577 55.658981,48.9175456 C51.2102211,47.6729676 48.4494807,43.3064175 46.6414029,39.5017022 L45.8790327,40.2139208 C44.1321846,41.8994248 42.5011928,43.5801164 39.7578609,42.7343568 C38.8658278,42.1935759 38.7565747,42.0828933 38.3825932,41.3833069 C39.1353586,39.6508831 40.1918716,39.3495136 41.4806973,38.2336642 C42.8787761,36.827273 44.2984654,35.4635908 45.2379215,33.6854503 C44.3927111,25.0949143 45.2193124,14.9439938 50.0144405,7.39050589 C52.023616,3.31209162 61.4361858,1.1146805 62.0845006,8.80952938 Z M32.7245462,9.07600984 C27.515217,2.52167328 17.6710376,4.86224996 13.8135648,11.5044108 C15.1017902,11.2445472 16.3545984,11.4256096 17.0041138,12.9150128 C17.1974076,14.5078802 16.537087,15.4697363 15.4151423,16.4616692 C13.0013704,16.6818314 11.3841853,18.9177408 9.89306133,20.5942217 C8.17022488,24.6744406 9.58691269,29.5763577 10.4309225,33.6854503 L10.9465728,34.1895375 C11.875824,35.115903 12.6321912,36.1006175 12.5649585,37.5142271 C11.6807293,39.9059344 6.95703587,41.0699066 6.45519222,37.2507543 C5.59977691,35.7348836 5.25580991,34.6346742 5.03670353,33.5122079 L4.88242863,32.6267469 C4.59248786,34.8391964 4.94605953,37.4161768 5.31403818,39.5895264 C6.07220628,42.4690794 8.04896601,44.6682951 10.8799405,45.8250489 C17.3708919,47.3721996 22.7224901,42.9142161 26.425688,38.0904986 C32.2593203,29.7177187 37.4380346,19.2185088 32.7245462,9.07600984 Z M206.315686,31.9397928 C207.762988,31.9397928 208.94076,33.1260218 208.94076,34.5823405 C208.94076,36.0368546 207.762988,37.2248883 206.315686,37.2248883 C204.864781,37.2248883 203.68761,36.0368546 203.68761,34.5823405 C203.68761,33.1260218 204.864781,31.9397928 206.315686,31.9397928 Z M114.073942,33.2210645 C112.891368,33.2210645 111.68118,34.6912185 112.070769,37.2080453 C114.200603,36.8374991 115.383177,35.5219398 115.404188,35.0226649 C115.457013,33.5904076 115.053017,33.2210645 114.073942,33.2210645 Z M206.321689,32.3356035 C205.099495,32.3356035 204.188853,33.3167087 204.188853,34.5823405 C204.188853,35.8467693 205.099495,36.827273 206.321689,36.827273 C207.528274,36.827273 208.438316,35.8467693 208.438316,34.5823405 C208.438316,33.3167087 207.528274,32.3356035 206.321689,32.3356035 Z M206.487789,33.0307385 C207.194933,33.0307385 207.544903,33.3170696 207.544903,33.9017627 C207.544903,34.3986314 207.23155,34.7577484 206.750717,34.7577484 L207.624141,36.1268444 L207.092283,36.1268444 L206.232665,34.7577484 L205.813062,34.7577484 L205.813062,36.1268444 L205.309417,36.1268444 L205.309417,33.0307385 L206.487789,33.0307385 Z M206.409151,33.4265492 L205.813062,33.4265492 L205.813062,34.3631408 L206.409151,34.3631408 C206.795139,34.3631408 207.042459,34.282535 207.042459,33.8783028 C207.042459,33.5276073 206.729106,33.4265492 206.409151,33.4265492 Z M151.319745,23.5954654 C152.77185,21.5815228 155.111186,22.6733107 156.326176,24.2102352 C156.888048,25.0788533 156.988897,26.334259 156.679147,27.2768659 C155.836338,29.1500491 154.097293,28.7825106 152.571353,28.4149721 C151.136056,27.1818232 150.58859,25.3928551 151.319745,23.5954654 Z M136.179554,13.1005299 C137.680283,13.0903605 138.751803,14.4642688 137.442567,15.7365175 C136.049291,17.0899736 132.154,18.4452343 130.353125,19.31686 C130.353125,19.31686 129.935936,19.4780021 129.245522,19.7450973 L128.8427,19.9009616 C127.486773,20.4257054 125.393779,21.2366198 123.3056,22.0493002 L122.647201,22.3056631 C119.692911,23.456575 116.906046,24.5505981 116.415559,24.7715887 C116.199454,24.868436 116.018766,24.9833294 115.846482,25.1102535 L115.304419,25.5235087 C112.764586,27.3599982 110.36282,23.3549713 109.925208,21.3693009 L109.862177,21.0974066 C110.656363,19.5989804 111.939185,18.9090185 113.565375,19.8468132 C114.989866,20.5746718 117.360417,18.9781952 118.853943,18.6190782 C124.270372,16.5690434 129.97134,15.1560353 135.455002,13.1980355 C135.455002,13.1980355 135.786363,13.1029928 136.179554,13.1005299 Z M63.5891911,20.7448463 C64.775367,18.6701486 67.2347611,19.2404047 68.5037772,20.2810621 C69.3009642,20.931924 70.1395714,22.8736823 69.0794567,24.3979746 C68.2930749,25.5300654 66.3553341,25.5318701 65.354048,25.1210209 C63.9043441,24.5267034 62.5278759,22.6041942 63.5891911,20.7448463 Z M55.3330227,9.2823367 C51.5661939,13.2837544 50.7323891,18.8028474 50.6963716,24.9691933 C53.5903766,20.0582531 56.0191558,16.1224029 56.4537668,10.1774223 C56.5762263,8.73554045 55.8180582,8.62004553 55.3330227,9.2823367 Z" id="Combined-Shape"></path>
            </g>
        </g>
    </g>
</svg>